<?xml version="1.0" standalone="no"?>
<!DOCTYPE svg PUBLIC "-//W3C//DTD SVG 20010904//EN"
 "http://www.w3.org/TR/2001/REC-SVG-20010904/DTD/svg10.dtd">
<svg version="1.0" xmlns="http://www.w3.org/2000/svg"
 width="700.000000pt" height="700.000000pt" viewBox="0 0 700.000000 700.000000"
 preserveAspectRatio="xMidYMid meet">
<metadata>
Created by potrace 1.11, written by Peter Selinger 2001-2013
</metadata>
<g transform="translate(0.000000,700.000000) scale(0.100000,-0.100000)"
fill="#000000" stroke="none">
<path d="M6224 6461 c-236 -139 -526 -433 -809 -821 -30 -41 -58 -80 -63 -85
-22 -27 -180 -267 -260 -397 -169 -272 -377 -660 -549 -1023 -69 -145 -253
-560 -253 -570 0 -3 -9 -27 -21 -53 -11 -26 -27 -62 -35 -80 -52 -120 -234
-603 -329 -872 -20 -58 -44 -126 -54 -152 l-16 -47 -95 282 c-52 155 -97 289
-102 297 -4 8 -18 49 -32 90 -62 190 -179 496 -248 652 l-61 138 -36 -29 c-20
-16 -46 -38 -57 -49 -12 -11 -95 -85 -185 -163 -90 -78 -166 -145 -169 -148
-3 -3 -36 -33 -75 -66 -63 -54 -119 -103 -149 -130 -6 -6 -42 -37 -81 -70 -38
-33 -72 -62 -75 -65 -3 -3 -41 -37 -85 -75 -44 -39 -82 -72 -85 -75 -3 -3 -23
-20 -45 -39 -49 -41 -163 -142 -223 -197 l-45 -40 54 -34 c49 -31 317 -226
329 -240 3 -3 30 -25 60 -50 30 -25 60 -49 66 -55 6 -5 45 -39 85 -74 134
-117 472 -462 564 -576 22 -28 52 -63 67 -80 41 -47 110 -139 219 -290 166
-230 275 -413 416 -699 35 -71 66 -127 68 -124 2 2 24 49 49 104 100 226 174
380 338 709 77 154 143 285 147 290 5 6 33 58 64 117 31 59 77 144 102 189 25
45 45 85 45 90 0 5 5 9 10 9 6 0 10 5 10 11 0 5 52 99 115 207 63 108 123 211
132 227 10 17 21 32 26 33 4 2 7 7 7 12 0 12 139 230 273 427 61 91 117 173
122 181 6 9 14 21 18 26 4 6 53 72 109 146 100 134 240 308 308 384 206 231
367 384 513 491 76 56 74 44 33 165 -37 105 -76 291 -92 430 -3 25 -7 56 -9
70 -2 14 -7 61 -10 105 -4 44 -9 96 -11 115 -5 45 -5 539 0 605 3 28 7 91 11
140 3 50 8 108 10 130 2 22 7 67 10 100 9 86 14 125 21 169 3 21 8 53 9 70 2
17 8 63 15 101 6 39 13 81 15 95 2 14 6 44 10 68 4 23 3 42 -2 41 -4 0 -45
-22 -89 -48z"/>
</g>
</svg>
