<?xml version="1.0" standalone="no"?>
<!DOCTYPE svg PUBLIC "-//W3C//DTD SVG 20010904//EN"
 "http://www.w3.org/TR/2001/REC-SVG-20010904/DTD/svg10.dtd">
<svg version="1.0" xmlns="http://www.w3.org/2000/svg"
 width="700.000000pt" height="700.000000pt" viewBox="0 0 700.000000 700.000000"
 preserveAspectRatio="xMidYMid meet">
<metadata>
Created by potrace 1.11, written by Peter Selinger 2001-2013
</metadata>
<g transform="translate(0.000000,700.000000) scale(0.100000,-0.100000)"
fill="#000000" stroke="none">
<path d="M6444 6938 c-85 -78 -161 -156 -222 -228 -26 -30 -55 -64 -66 -75
-29 -31 -239 -314 -280 -376 l-37 -56 -42 6 c-54 8 -207 7 -277 -1 -123 -14
-252 -59 -315 -108 -26 -20 -513 -295 -630 -356 l-50 -26 -3 -786 c-4 -1146
-5 -1181 -31 -1282 -75 -297 -249 -516 -502 -634 -115 -53 -106 -59 -146 79
-19 66 -43 145 -53 175 -19 55 -14 80 15 80 22 0 129 76 183 130 65 65 115
148 149 249 l27 76 1 675 c1 732 3 700 -56 828 -90 195 -219 315 -400 373
-120 38 -313 31 -424 -16 -16 -7 -45 -18 -63 -25 -52 -20 -142 -82 -193 -132
-77 -76 -134 -170 -171 -280 -18 -56 -19 -94 -18 -727 0 -652 0 -670 21 -737
40 -131 130 -273 210 -336 l32 -24 -124 -128 -124 -127 -62 63 c-34 35 -79 85
-99 112 -77 102 -156 281 -183 416 -7 37 -11 367 -13 1017 l-3 961 -224 129
c-123 70 -247 142 -276 158 -29 17 -102 58 -161 92 -123 70 -140 77 -227 97
-62 15 -311 16 -367 2 -14 -3 -34 -8 -45 -10 -204 -41 -405 -149 -538 -290
-27 -28 -73 -88 -103 -132 -186 -279 -237 -589 -143 -871 31 -95 105 -227 175
-313 86 -106 263 -257 551 -470 55 -41 242 -190 293 -234 81 -70 291 -287 353
-366 132 -165 232 -326 336 -535 48 -97 141 -315 164 -385 2 -8 -7 -28 -21
-43 l-26 -28 52 -47 c52 -47 52 -48 91 -187 22 -77 47 -192 55 -255 9 -63 18
-128 21 -145 19 -132 54 -396 71 -535 15 -121 33 -223 53 -292 22 -75 66 -180
93 -220 10 -14 18 -29 18 -33 0 -12 102 -138 144 -179 124 -117 302 -205 470
-232 21 -3 48 -8 60 -10 11 -3 66 -5 121 -5 113 0 268 27 372 66 36 14 67 24
68 23 8 -9 140 -290 175 -370 l42 -98 62 0 61 1 43 112 c94 242 215 536 307
742 7 17 33 77 58 135 203 471 539 1156 768 1563 22 38 39 70 39 72 0 3 108
191 130 225 12 20 92 151 105 172 55 91 84 137 188 293 177 264 252 366 442
593 33 40 131 142 218 228 l159 155 -26 92 c-14 51 -28 101 -30 112 -2 11 -11
54 -20 95 -13 67 -22 116 -40 243 -4 22 1 68 10 105 22 90 27 286 10 387 -8
44 -26 121 -41 170 -23 76 -27 109 -28 215 0 124 9 405 18 510 8 100 16 184
20 225 2 22 7 72 10 110 4 39 8 84 10 100 5 31 24 184 31 245 2 19 6 50 9 68
l6 32 -74 0 -74 0 -69 -62z"/>
</g>
</svg>
